<?xml version="1.0" standalone="no"?>
<!DOCTYPE svg PUBLIC "-//W3C//DTD SVG 20010904//EN" "http://www.w3.org/TR/2001/REC-SVG-20010904/DTD/svg10.dtd">
<!-- Created using Krita: https://krita.org -->
<svg xmlns="http://www.w3.org/2000/svg" 
    xmlns:xlink="http://www.w3.org/1999/xlink"
    xmlns:krita="http://krita.org/namespaces/svg/krita"
    xmlns:sodipodi="http://sodipodi.sourceforge.net/DTD/sodipodi-0.dtd"
    width="184.32pt"
    height="184.32pt"
    viewBox="0 0 184.32 184.32">
<defs/>
<ellipse id="shape0" transform="matrix(0.735231336411941 -0.313461776932062 0.392187892357736 0.919885132550806 67.8608772964771 59.7841613343609)" rx="39.9660761520987" ry="15.8149480185234" cx="39.9660761520987" cy="15.8149480185234" fill="none" stroke="#1c1c1c" stroke-width="3.6" stroke-linecap="square" stroke-linejoin="bevel"/><path id="shape1" transform="matrix(0.735231336411941 -0.313461776932062 0.392187892357736 0.919885132550806 76.203307941089 78.372089769474)" fill="none" stroke="#1c1c1c" stroke-width="4.32" stroke-linecap="square" stroke-linejoin="bevel" d="M78.4947 91.5609C54.4207 105.856 28.283 105.99 0.0816378 91.965L0 0.28165C27.004 13.6131 53.5499 13.5192 79.6377 0Z"/><ellipse id="shape2" transform="matrix(0.735231336411939 -0.313461776932062 0.416305614867061 0.909602676160652 89.482696685851 55.2324772144553)" rx="12.8169921259842" ry="3.54665196850394" cx="12.8169921259842" cy="3.54665196850394" fill="none" stroke="#1c1c1c" stroke-width="4.32" stroke-linecap="square" stroke-linejoin="bevel"/><path id="shape3" transform="matrix(0.735231336411941 -0.313461776932062 0.392187892357736 0.919885132550806 88.7007891907423 36.5539755473646)" fill="none" stroke="#1c1c1c" stroke-width="3.6" stroke-linecap="square" stroke-linejoin="bevel" d="M0 20.5175L0.120264 0"/><path id="shape4" transform="matrix(0.735231336411941 -0.313461776932062 0.392187892357736 0.919885132550806 95.9820621406186 33.2896222991501)" fill="none" stroke="#1c1c1c" stroke-width="3.6" stroke-linecap="square" stroke-linejoin="bevel" d="M0.0192422 20.8162L0 0"/><ellipse id="shape5" transform="matrix(0.735231336411941 -0.313461776932062 0.392187892357736 0.919885132550806 87.6470275172867 32.8197538038039)" rx="4.32" ry="2.52" cx="4.32" cy="2.52" fill="none" stroke="#1c1c1c" stroke-width="3.6" stroke-linecap="square" stroke-linejoin="bevel"/><path id="shape6" transform="matrix(0.735231336411941 -0.313461776932062 0.392187892357736 0.919885132550806 74.1693252796461 73.9247899082461)" fill="none" stroke="#1c1c1c" stroke-width="3.6" stroke-linecap="square" stroke-linejoin="bevel" d="M0.0625372 0L0 9.81172"/><path id="shape7" transform="matrix(0.735231336411941 -0.313461776932062 0.392187892357736 0.919885132550806 133.390889730526 50.5877366072101)" fill="none" stroke="#1c1c1c" stroke-width="3.6" stroke-linecap="square" stroke-linejoin="bevel" d="M0 0L0.0867402 6.35091"/><path id="shape8" transform="matrix(0.735231336411941 -0.313461776932062 0.392187892357736 0.919885132550806 47.6537273174947 58.8443108134743)" fill="none" stroke="#1c1c1c" stroke-width="2.16" stroke-linecap="square" stroke-linejoin="bevel" d="M63.3407 0.134702L0 0"/><path id="shape9" transform="matrix(0.735231336411941 -0.313461776932062 0.392187892357736 0.919885132550806 47.9688898559067 61.1294303220178)" fill="none" stroke="#1c1c1c" stroke-width="2.16" stroke-linecap="square" stroke-linejoin="bevel" d="M64.2013 0L0 0.532687"/><path id="shape10" transform="matrix(0.735231336411941 -0.313461776932062 0.392187892357736 0.919885132550806 46.2738118734356 59.223163648394)" fill="none" stroke="#1c1c1c" stroke-width="2.16" stroke-linecap="square" stroke-linejoin="bevel" d="M0 0L0.0714331 2.99254"/><path id="shape11" transform="translate(11.9015732526534, 45.9713415127169)" fill="none" stroke="#1c1c1c" stroke-width="2.16" stroke-linecap="square" stroke-linejoin="bevel" d="M19.3864 0.00476872C17.6822 -0.154425 -9.23105 3.57438 3.32756 25.9656"/><path id="shape12" transform="translate(7.47506662604038, 71.1174614173228)" fill="none" stroke="#1c1c1c" stroke-width="2.16" stroke-linecap="square" stroke-linejoin="bevel" d="M6.68484 0C-3.27724 15.4459 -2.10483 25.9761 10.2021 31.5908C22.509 37.2054 33.6366 34.396 43.5851 23.1627"/><path id="shape13" transform="translate(32.9406640536641, 106.036539176862)" fill="none" stroke="#1c1c1c" stroke-width="2.16" stroke-linecap="square" stroke-linejoin="bevel" d="M0 0C5.22747 15.7478 19.7201 19.272 43.4778 10.5726"/>
</svg>
