<?xml version="1.0" standalone="no"?>
<!DOCTYPE svg PUBLIC "-//W3C//DTD SVG 20010904//EN" "http://www.w3.org/TR/2001/REC-SVG-20010904/DTD/svg10.dtd">
<!-- Created using Krita: https://krita.org -->
<svg xmlns="http://www.w3.org/2000/svg" 
    xmlns:xlink="http://www.w3.org/1999/xlink"
    xmlns:krita="http://krita.org/namespaces/svg/krita"
    xmlns:sodipodi="http://sodipodi.sourceforge.net/DTD/sodipodi-0.dtd"
    width="184.32pt"
    height="184.32pt"
    viewBox="0 0 184.32 184.32">
<defs/>
<path id="shape0" transform="matrix(0.999696404398007 0.0246393797344096 -0.0246393797344096 0.999696404398007 36.7818460110151 36.2111700650009)" fill="none" stroke="#fff941" stroke-width="4.32" stroke-linecap="square" stroke-linejoin="bevel" d="M8.38047 120.484C12.9317 122.23 17.7015 122.089 22.6901 120.061C26.5009 118.192 28.096 113.57 27.4755 106.195C26.9077 104.566 30.452 99.77 38.1083 91.8066L93.6522 31.475C94.5727 30.0172 98.0058 29.4068 103.952 29.6435C109.471 27.7267 112.75 22.8455 113.789 14.9999L104.44 19.8695C100.769 19.1113 98.7221 15.3244 98.2984 8.50877C98.6005 7.71961 101.606 5.59589 107.316 2.13763C106.946 0.542137 105.248 -0.135529 102.222 0.104628C95.6068 -0.454797 91.5709 1.22913 90.1139 5.15641C88.8404 8.85846 88.1104 12.9535 87.9238 17.4417C86.3115 20.7115 84.8877 22.8045 83.6522 23.7206L19.9901 91.6676C19.6241 92.3751 17.043 92.6078 12.2466 92.3656C8.91571 92.4684 5.96329 94.2727 3.38936 97.7784C3.23629 98.0601 0.013717 102.481 0.0972126 104.38C-0.0790344 106.505 -0.0156288 107.881 0.287429 108.511L9.15961 102.8C13.6718 102.421 16.6056 105.891 17.9611 113.209Z"/><path id="shape1" transform="translate(35.9500453234109, 48.0454834750936)" fill="none" stroke="#fff941" stroke-width="4.32" stroke-linecap="square" stroke-linejoin="bevel" d="M76.7622 2.62801L63.9132 0L57.9481 11.4818L52.9355 11.274L44.6373 0.445938L33.2171 4.16498L33.7124 17.104L28.5554 20.7884L17.1304 16.1212L9.21221 25.5681L17.0727 36.3875L13.8736 42.687L1.53457 44.9729L0 56.6236L12.5796 61.2129L13.7421 72.8076L23.7882 62.8191C23.4131 33.9796 36.8827 20.6668 64.197 22.8806L77.4699 9.16237Z"/>
</svg>
